<svg width="1637" height="1585" viewBox="0 0 1637 1585" fill="none" xmlns="http://www.w3.org/2000/svg">
<g style="mix-blend-mode:luminosity" opacity="0.3">
<path opacity="0.92" d="M826.006 1477.29L1085.51 1162.29L1390.51 419.786L1143.51 1416.29L826.006 1477.29Z" fill="#EBEBEB"/>
<path opacity="0.43" d="M242.191 1082.52L550.279 345.329L718.8 637.216L242.191 1082.52Z" fill="#C0C0C0"/>
<path opacity="0.43" d="M1390.6 419.488L923.199 880.742L760.664 599.223L1390.6 419.488Z" fill="#C0C0C0"/>
<path opacity="0.63" d="M1390.6 419.488L1085.73 1162.26L923.199 880.742L1390.6 419.488Z" fill="#C0C0C0"/>
<path opacity="0.43" d="M1390.6 419.488L550.278 345.33L706.137 615.285L1390.6 419.488Z" fill="#C0C0C0"/>
<path opacity="0.43" d="M242.191 1082.52L923.199 880.742L760.664 599.223L242.191 1082.52Z" fill="#C0C0C0"/>
<path opacity="0.43" d="M242.191 1082.52L1085.73 1162.26L923.199 880.742L242.191 1082.52Z" fill="#C0C0C0"/>
<path opacity="0.63" d="M242.006 1082.79L1085.51 1162.29L826.006 1477.29L242.006 1082.79Z" fill="#C0C0C0"/>
<path d="M242.006 1082.79L826.006 1477.29L826.506 1541.79L242.006 1082.79Z" fill="#C0C0C0"/>
<g filter="url(#filter0_f_506_9)">
<path d="M757.006 1277.52C757.006 1286.61 720.361 1285.08 700.935 1312.67C691.965 1325.4 640.006 1313.75 640.006 1304.66C640.006 1295.57 678.494 1267.29 707.999 1267.29C737.503 1267.29 757.006 1268.43 757.006 1277.52Z" fill="#131313" fill-opacity="0.3"/>
</g>
<path d="M1143.51 1416.29L826.506 1541.79L826.006 1477.29L1143.51 1416.29Z" fill="#C0C0C0"/>
</g>
<defs>
<filter id="filter0_f_506_9" x="636.006" y="1263.29" width="125" height="59" filterUnits="userSpaceOnUse" color-interpolation-filters="sRGB">
<feFlood flood-opacity="0" result="BackgroundImageFix"/>
<feBlend mode="normal" in="SourceGraphic" in2="BackgroundImageFix" result="shape"/>
<feGaussianBlur stdDeviation="2" result="effect1_foregroundBlur_506_9"/>
</filter>
</defs>
</svg>
