<svg width="1920" height="752" fill="none" xmlns="http://www.w3.org/2000/svg"><g opacity=".14" fill="#E890DA"><path d="M1523.36 506.01c-3.53 3.697-9.17 4.622-16.94 2.773-7.77-1.479-14.47-4.992-20.12-10.539s-7.06-12.018-4.24-19.413c17.65-32.171 38.48-68.225 62.48-108.162 23.66-39.936 48.72-76.729 75.2-110.379 26.47-33.651 52.77-57.502 78.89-71.553 22.6-9.245 43.95-7.026 64.07 6.656 19.77 14.051 31.24 30.507 34.42 49.366.71 12.202-.88 28.103-4.76 47.702-3.89 19.968-8.3 38.457-13.24 55.467 11.29-14.052 24-31.247 38.12-51.585 25.77-39.936 56.31-78.024 91.61-114.262 9.53-7.766 23.12-9.43 40.77-4.992 17.65 4.437 33.71 12.572 48.19 24.405 14.47 11.833 21.53 24.96 21.18 39.382-6.36 57.316-25.24 116.666-56.66 178.05-31.42 61.384-66.19 109.086-104.31 143.106-21.18 17.009-40.42 22.926-57.72 17.749-17.65-5.177-35.48-14.606-53.48-28.288a2129.49 2129.49 0 0 0-20.12-13.867 1230.553 1230.553 0 0 0-26.48 32.171c-6 8.135-12.35 16.27-19.06 24.406-8.12 8.135-19.42 9.799-33.89 4.992-14.83-4.808-27.36-12.943-37.6-24.406-10.23-11.093-12.88-22.187-7.94-33.28 46.25-84.68 75.55-149.577 87.9-194.691 12-45.113 12.53-67.855 1.59-68.224-27.89 1.849-83.84 77.654-167.86 227.416Zm251.52-42.156c-2.12 3.328-3.17 8.505-3.17 15.531s1.23 13.497 3.7 19.414c2.47 6.286 6.18 9.984 11.12 11.093 4.94 1.479 11.3-1.849 19.06-9.984 31.42-35.129 57.72-75.435 78.9-120.919 21.18-45.113 32.48-77.284 33.89-96.513-17.3 15.161-40.95 42.156-70.95 80.983-30.01 38.827-54.19 72.292-72.55 100.395Z"/><path d="M1228.96 499.354c-2.12 2.588-5.3 3.143-9.54 1.664-4.23-1.11-8.64-3.513-13.23-7.211-4.59-3.698-8.12-7.581-10.59-11.648-2.83-3.698-3.53-6.841-2.12-9.43 5.65-9.614 12-20.892 19.06-33.835 16.59-30.322 36.36-63.787 59.31-100.396 22.59-36.608 47.48-69.888 74.66-99.841 27.18-29.582 55.77-49.181 85.78-58.795 17.65-4.068 38.3-2.404 61.95 4.992 23.65 7.396 44.83 18.304 63.54 32.726 18.71 14.791 29.3 30.692 31.77 47.702 2.83 40.306-5.12 87.083-23.82 140.332-18.71 53.248-42.89 101.135-72.55 143.66-30 42.525-60.19 68.04-90.54 76.545-6.36 1.479-12.36 1.109-18.01-1.109-5.65-2.219-12.53-5.547-20.65-9.985-4.23-2.218-9.18-4.807-14.82-7.765-1.42 2.219-3.18 4.992-5.3 8.32a884.54 884.54 0 0 1-13.77 19.414c-4.59 6.656-7.94 10.538-10.06 11.648-12 4.437-25.06 2.219-39.18-6.656-14.48-8.875-25.77-19.784-33.89-32.726-8.47-12.573-9.88-22.187-4.24-28.843 27.54-26.994 49.6-57.131 66.19-90.412 16.24-32.91 22.42-58.24 18.54-75.99 4.58-5.177 12.53-6.286 23.82-3.328 10.95 2.958 21.54 9.245 31.77 18.859 9.89 9.984 15.36 22.557 16.42 37.718-.35 13.682-3.88 30.137-10.59 49.366-7.06 19.228-13.77 34.759-20.12 46.592 15.18-8.135 31.59-29.028 49.24-62.678 17.3-33.65 31.77-70.443 43.42-110.38 11.65-39.566 16.59-72.847 14.83-99.841-2.12-26.624-15-37.348-38.66-32.171-27.88 8.875-55.95 30.877-84.19 66.006-28.24 35.13-57.36 75.806-87.37 122.028a2551.08 2551.08 0 0 1-37.06 55.468Z"/><path d="M926.075 499.354c-2.118 2.588-5.295 3.143-9.531 1.664-4.236-1.11-8.648-3.513-13.238-7.211-4.589-3.698-8.119-7.581-10.59-11.648-2.824-3.698-3.53-6.841-2.118-9.43 5.648-9.614 12.002-20.892 19.063-33.835 16.591-30.322 36.359-63.787 59.305-100.396 22.592-36.608 47.484-69.888 74.664-99.841 27.18-29.582 55.77-49.181 85.78-58.795 17.65-4.068 38.3-2.404 61.95 4.992 23.65 7.396 44.83 18.304 63.54 32.726 18.71 14.791 29.3 30.692 31.77 47.702 2.83 40.306-5.12 87.083-23.83 140.332-18.7 53.248-42.89 101.135-72.54 143.66-30 42.525-60.19 68.04-90.54 76.545-6.36 1.479-12.36 1.109-18.01-1.109-5.65-2.219-12.53-5.547-20.65-9.984-4.24-2.219-9.18-4.808-14.83-7.766-1.41 2.219-3.17 4.992-5.29 8.32a884.54 884.54 0 0 1-13.77 19.414c-4.59 6.656-7.94 10.539-10.06 11.648-12 4.437-25.062 2.219-39.182-6.656-14.474-8.875-25.77-19.784-33.889-32.726-8.472-12.572-9.884-22.187-4.236-28.843 27.534-26.994 49.597-57.131 66.187-90.412 16.24-32.91 22.42-58.24 18.53-75.99 4.59-5.177 12.54-6.286 23.83-3.328 10.95 2.958 21.54 9.245 31.77 18.859 9.89 9.984 15.36 22.557 16.42 37.718-.35 13.682-3.88 30.137-10.59 49.366-7.06 19.228-13.77 34.759-20.12 46.592 15.18-8.135 31.59-29.028 49.24-62.678 17.3-33.65 31.77-70.443 43.42-110.38 11.65-39.566 16.59-72.847 14.83-99.841-2.12-26.624-15.01-37.348-38.66-32.171-27.88 8.875-55.95 30.877-84.19 66.006-28.24 35.13-57.363 75.806-87.369 122.028a2526.178 2526.178 0 0 1-37.066 55.468Z"/><path d="M380.679 659.654c-41.302-21.817-73.603-46.223-96.901-73.217-23.652-26.624-31.241-67.115-22.769-121.473 5.295-25.885 16.415-64.157 33.359-114.817 15.532-47.332 30.182-96.329 43.95-146.989 13.767-50.29 20.65-93 20.65-128.13-.352-35.498-13.237-54.542-38.654-57.13 8.825-16.27 25.064-21.448 48.715-15.531 23.299 5.547 44.303 20.892 63.012 46.038 18.71 25.145 25.064 58.61 19.063 100.395-12.356 56.207-31.242 119.255-56.658 189.144-15.18 42.895-26.829 78.763-34.948 107.606-11.296 38.827-13.238 70.998-5.825 96.513 7.414 25.885 28.241 45.484 62.483 58.796.706-68.41 21.533-149.022 62.482-241.838 40.596-92.815 86.664-156.787 138.203-191.916 14.12-7.396 32.3-8.321 54.539-2.774 21.887 5.547 42.185 15.346 60.894 29.398 18.357 14.052 29.476 29.952 33.359 47.702 3.178 29.582-.353 65.636-10.59 108.161 11.649-14.422 24.711-32.171 39.184-53.249 27.888-42.525 60.011-82.646 96.371-120.364 9.884-7.765 23.828-9.429 41.832-4.992 18.003 4.438 34.241 12.758 48.715 24.961 14.826 12.202 22.065 25.514 21.705 39.936-6.349 58.426-25.588 118.885-57.712 181.378-31.771 62.493-67.248 111.119-106.432 145.879-21.533 17.38-41.125 23.296-58.776 17.749-18.003-5.176-36.007-14.791-54.01-28.842a1882.23 1882.23 0 0 1-20.651-13.867c-3.177 4.807-6.884 10.723-11.12 17.749a887.982 887.982 0 0 1-12.708 19.414c-4.236 6.286-7.943 11.278-11.12 14.976-8.825 8.135-20.474 9.429-34.947 3.883-14.827-5.177-27.182-13.497-37.066-24.961-10.237-11.463-12.709-22.741-7.413-33.835 42.713-75.435 68.483-140.147 77.308-194.135 8.472-53.619 7.59-85.42-2.647-95.404-12.003-7.765-30.712 4.807-56.129 37.718-25.769 33.28-50.127 75.435-73.072 126.465-22.946 51.03-36.536 99.841-40.772 146.434-4.59 46.592 8.472 79.503 39.183 98.732 8.826 5.916 11.473 15.346 7.943 28.288-3.53 12.942-10.414 25.7-20.651 38.272-10.59 12.943-21.533 22.002-32.83 27.179-11.649 5.547-21.004 3.513-28.064-6.101-5.295-8.135-9.707-15.161-13.237-21.078-6.002-11.093-13.062-21.077-21.181-29.952-8.472-8.875-23.828-19.598-46.067-32.171ZM758.22 462.191c-1.765 3.328-2.824 8.504-3.177 15.53-.706 7.396 0 14.237 2.118 20.523 1.765 6.656 4.942 10.539 9.531 11.648 4.59 1.479 10.944-1.849 19.063-9.984 31.771-35.869 58.423-76.914 79.956-123.137 21.534-46.223 33.006-79.133 34.418-98.732-16.944 15.531-40.066 42.895-69.366 82.092-29.652 39.566-53.833 73.586-72.543 102.06ZM-82.644 340.163c-7.06.739-11.65-2.774-13.767-10.539-2.119-7.396-2.119-15.161 0-23.296 1.764-7.766 5.118-12.203 10.06-13.313 15.18-2.218 30.006-2.773 44.48-1.664 14.473 1.11 30.71 4.808 48.714 11.094l4.766-9.984c7.766-18.859 19.415-41.231 34.948-67.116 15.179-25.884 34.241-46.038 57.187-60.459 15.885-7.765 35.654-8.69 59.305-2.773 23.299 5.916 45.009 16.27 65.13 31.061 20.122 15.161 33.183 32.356 39.184 51.585 6.001 26.624 5.472 55.467-1.589 86.529-7.06 31.431-17.297 60.644-30.711 87.638-13.061 26.994-26.299 47.147-39.714 60.459-4.589 4.808-9.707 9.245-15.355 13.313a35685.46 35685.46 0 0 0-7.414 5.546c2.825 15.531 4.413 31.062 4.766 46.593 0 15.531-3.353 30.322-10.061 44.374-9.884 15.9-29.123 23.851-57.716 23.851-28.947.369-57.188-8.505-84.722-26.625-27.535-18.119-44.303-46.407-50.304-84.865-2.824-26.254-2.47-51.954 1.06-77.099 3.176-24.776 7.942-50.106 14.296-75.99-7.06-4.068-17.297-7.211-30.712-9.43-13.414-1.849-27.358-1.479-41.831 1.11ZM179.994 216.47c-26.123 16.271-45.891 35.5-59.306 57.686-13.767 22.187-25.24 46.038-34.418 71.553 24.358 16.64 42.89 38.642 55.599 66.006 4.942-5.916 11.473-21.262 19.592-46.037 7.766-24.406 14.12-50.846 19.062-79.319 4.589-28.473 4.413-51.769-.529-69.889ZM70.384 407.833c-4.941 14.051-7.589 30.692-7.942 49.92-.706 19.599.176 37.718 2.648 54.358 2.47 17.01 5.824 28.843 10.06 35.499 20.828-32.171 19.24-78.763-4.765-139.777Z"/></g></svg>