<svg width="1920" height="752" viewBox="0 0 1920 752" fill="none" xmlns="http://www.w3.org/2000/svg">
<g opacity="0.14">
<path d="M1523.36 506.01C1519.83 509.707 1514.19 510.632 1506.42 508.783C1498.65 507.304 1491.95 503.791 1486.3 498.244C1480.65 492.697 1479.24 486.226 1482.06 478.831C1499.71 446.66 1520.54 410.606 1544.54 370.669C1568.2 330.733 1593.26 293.94 1619.74 260.29C1646.21 226.639 1672.51 202.788 1698.63 188.737C1721.23 179.492 1742.58 181.711 1762.7 195.393C1782.47 209.444 1793.94 225.9 1797.12 244.759C1797.83 256.961 1796.24 272.862 1792.36 292.461C1788.47 312.429 1784.06 330.918 1779.12 347.928C1790.41 333.876 1803.12 316.681 1817.24 296.343C1843.01 256.407 1873.55 218.319 1908.85 182.081C1918.38 174.315 1931.97 172.651 1949.62 177.089C1967.27 181.526 1983.33 189.661 1997.81 201.494C2012.28 213.327 2019.34 226.454 2018.99 240.876C2012.63 298.192 1993.75 357.542 1962.33 418.926C1930.91 480.31 1896.14 528.012 1858.02 562.032C1836.84 579.041 1817.6 584.958 1800.3 579.781C1782.65 574.604 1764.82 565.175 1746.82 551.493C1740.46 547.055 1733.76 542.433 1726.7 537.626C1717.87 547.98 1709.05 558.703 1700.22 569.797C1694.22 577.932 1687.87 586.067 1681.16 594.203C1673.04 602.338 1661.74 604.002 1647.27 599.195C1632.44 594.387 1619.91 586.252 1609.67 574.789C1599.44 563.696 1596.79 552.602 1601.73 541.509C1647.98 456.829 1677.28 391.932 1689.63 346.818C1701.63 301.705 1702.16 278.963 1691.22 278.594C1663.33 280.443 1607.38 356.248 1523.36 506.01ZM1774.88 463.854C1772.76 467.182 1771.71 472.359 1771.71 479.385C1771.71 486.411 1772.94 492.882 1775.41 498.799C1777.88 505.085 1781.59 508.783 1786.53 509.892C1791.47 511.371 1797.83 508.043 1805.59 499.908C1837.01 464.779 1863.31 424.473 1884.49 378.989C1905.67 333.876 1916.97 301.705 1918.38 282.476C1901.08 297.637 1877.43 324.632 1847.43 363.459C1817.42 402.286 1793.24 435.751 1774.88 463.854Z" fill="#FDC1C5"/>
<path d="M1228.96 499.354C1226.84 501.942 1223.66 502.497 1219.42 501.018C1215.19 499.908 1210.78 497.505 1206.19 493.807C1201.6 490.109 1198.07 486.226 1195.6 482.159C1192.77 478.461 1192.07 475.318 1193.48 472.729C1199.13 463.115 1205.48 451.837 1212.54 438.894C1229.13 408.572 1248.9 375.107 1271.85 338.498C1294.44 301.89 1319.33 268.61 1346.51 238.657C1373.69 209.075 1402.28 189.476 1432.29 179.862C1449.94 175.794 1470.59 177.458 1494.24 184.854C1517.89 192.25 1539.07 203.158 1557.78 217.58C1576.49 232.371 1587.08 248.272 1589.55 265.282C1592.38 305.588 1584.43 352.365 1565.73 405.614C1547.02 458.862 1522.84 506.749 1493.18 549.274C1463.18 591.799 1432.99 617.314 1402.64 625.819C1396.28 627.298 1390.28 626.928 1384.63 624.71C1378.98 622.491 1372.1 619.163 1363.98 614.725C1359.75 612.507 1354.8 609.918 1349.16 606.96C1347.74 609.179 1345.98 611.952 1343.86 615.28C1339.27 621.936 1334.68 628.407 1330.09 634.694C1325.5 641.35 1322.15 645.232 1320.03 646.342C1308.03 650.779 1294.97 648.561 1280.85 639.686C1266.37 630.811 1255.08 619.902 1246.96 606.96C1238.49 594.387 1237.08 584.773 1242.72 578.117C1270.26 551.123 1292.32 520.986 1308.91 487.705C1325.15 454.795 1331.33 429.465 1327.45 411.715C1332.03 406.538 1339.98 405.429 1351.27 408.387C1362.22 411.345 1372.81 417.632 1383.04 427.246C1392.93 437.23 1398.4 449.803 1399.46 464.964C1399.11 478.646 1395.58 495.101 1388.87 514.33C1381.81 533.558 1375.1 549.089 1368.75 560.922C1383.93 552.787 1400.34 531.894 1417.99 498.244C1435.29 464.594 1449.76 427.801 1461.41 387.864C1473.06 348.298 1478 315.017 1476.24 288.023C1474.12 261.399 1461.24 250.675 1437.58 255.852C1409.7 264.727 1381.63 286.729 1353.39 321.858C1325.15 356.988 1296.03 397.664 1266.02 443.886C1254.02 462.375 1241.66 480.864 1228.96 499.354Z" fill="#FDC1C5"/>
<path d="M926.075 499.354C923.957 501.942 920.78 502.497 916.544 501.018C912.308 499.908 907.896 497.505 903.306 493.807C898.717 490.109 895.187 486.226 892.716 482.159C889.892 478.461 889.186 475.318 890.598 472.729C896.246 463.115 902.6 451.837 909.661 438.894C926.252 408.572 946.02 375.107 968.966 338.498C991.558 301.89 1016.45 268.61 1043.63 238.657C1070.81 209.075 1099.4 189.476 1129.41 179.862C1147.06 175.794 1167.71 177.458 1191.36 184.854C1215.01 192.25 1236.19 203.158 1254.9 217.58C1273.61 232.371 1284.2 248.272 1286.67 265.282C1289.5 305.588 1281.55 352.365 1262.84 405.614C1244.14 458.862 1219.95 506.749 1190.3 549.274C1160.3 591.799 1130.11 617.314 1099.76 625.819C1093.4 627.298 1087.4 626.928 1081.75 624.71C1076.1 622.491 1069.22 619.163 1061.1 614.726C1056.86 612.507 1051.92 609.918 1046.27 606.96C1044.86 609.179 1043.1 611.952 1040.98 615.28C1036.39 621.936 1031.8 628.407 1027.21 634.694C1022.62 641.35 1019.27 645.233 1017.15 646.342C1005.15 650.779 992.088 648.561 977.968 639.686C963.494 630.811 952.198 619.902 944.079 606.96C935.607 594.388 934.195 584.773 939.843 578.117C967.377 551.123 989.44 520.986 1006.03 487.705C1022.27 454.795 1028.45 429.465 1024.56 411.715C1029.15 406.538 1037.1 405.429 1048.39 408.387C1059.34 411.345 1069.93 417.632 1080.16 427.246C1090.05 437.23 1095.52 449.803 1096.58 464.964C1096.23 478.646 1092.7 495.101 1085.99 514.33C1078.93 533.558 1072.22 549.089 1065.87 560.922C1081.05 552.787 1097.46 531.894 1115.11 498.244C1132.41 464.594 1146.88 427.801 1158.53 387.864C1170.18 348.298 1175.12 315.017 1173.36 288.023C1171.24 261.399 1158.35 250.675 1134.7 255.852C1106.82 264.727 1078.75 286.729 1050.51 321.858C1022.27 356.988 993.147 397.664 963.141 443.886C951.139 462.375 938.784 480.864 926.075 499.354Z" fill="#FDC1C5"/>
<path d="M380.679 659.654C339.377 637.837 307.076 613.431 283.778 586.437C260.126 559.813 252.537 519.322 261.009 464.964C266.304 439.079 277.424 400.807 294.368 350.147C309.9 302.815 324.55 253.818 338.318 203.158C352.085 152.868 358.968 110.158 358.968 75.0289C358.616 39.5299 345.731 20.4861 320.314 17.8976C329.139 1.62722 345.378 -3.54972 369.029 2.36678C392.328 7.91353 413.332 23.2595 432.041 48.4046C450.751 73.5498 457.105 107.015 451.104 148.8C438.748 205.007 419.862 268.055 394.446 337.944C379.266 380.839 367.617 416.707 359.498 445.55C348.202 484.377 346.26 516.548 353.673 542.063C361.087 567.948 381.914 587.547 416.156 600.859C416.862 532.449 437.689 451.837 478.638 359.021C519.234 266.206 565.302 202.234 616.841 167.105C630.961 159.709 649.141 158.784 671.38 164.331C693.267 169.878 713.565 179.677 732.274 193.729C750.631 207.781 761.75 223.681 765.633 241.431C768.811 271.013 765.28 307.067 755.043 349.592C766.692 335.17 779.754 317.421 794.227 296.343C822.115 253.818 854.238 213.697 890.598 175.979C900.482 168.214 914.426 166.55 932.43 170.987C950.433 175.425 966.671 183.745 981.145 195.948C995.971 208.15 1003.21 221.462 1002.85 235.884C996.501 294.31 977.262 354.769 945.138 417.262C913.367 479.755 877.89 528.381 838.706 563.141C817.173 580.521 797.581 586.437 779.93 580.89C761.927 575.714 743.923 566.099 725.92 552.048C719.213 547.61 712.329 542.988 705.269 538.181C702.092 542.988 698.385 548.904 694.149 555.93C689.913 562.586 685.677 569.057 681.441 575.344C677.205 581.63 673.498 586.622 670.321 590.32C661.496 598.455 649.847 599.749 635.374 594.203C620.547 589.026 608.192 580.706 598.308 569.242C588.071 557.779 585.599 546.501 590.895 535.407C633.608 459.972 659.378 395.26 668.203 341.272C676.675 287.653 675.793 255.852 665.556 245.868C653.553 238.103 634.844 250.675 609.427 283.586C583.658 316.866 559.3 359.021 536.355 410.051C513.409 461.081 499.819 509.892 495.583 556.485C490.993 603.077 504.055 635.988 534.766 655.217C543.592 661.133 546.239 670.563 542.709 683.505C539.179 696.447 532.295 709.205 522.058 721.777C511.468 734.72 500.525 743.779 489.228 748.956C477.579 754.503 468.224 752.469 461.164 742.855C455.869 734.72 451.457 727.694 447.927 721.777C441.925 710.684 434.865 700.7 426.746 691.825C418.274 682.95 402.918 672.227 380.679 659.654ZM758.22 462.191C756.455 465.519 755.396 470.695 755.043 477.721C754.337 485.117 755.043 491.958 757.161 498.244C758.926 504.9 762.103 508.783 766.692 509.892C771.282 511.371 777.636 508.043 785.755 499.908C817.526 464.039 844.178 422.994 865.711 376.771C887.245 330.548 898.717 297.638 900.129 278.039C883.185 293.57 860.063 320.934 830.763 360.131C801.111 399.697 776.93 433.717 758.22 462.191Z" fill="#FDC1C5"/>
<path d="M-82.6441 340.163C-89.7044 340.902 -94.2935 337.389 -96.4114 329.624C-98.5296 322.228 -98.5296 314.463 -96.4114 306.328C-94.6465 298.562 -91.2928 294.125 -86.3506 293.015C-71.1714 290.797 -56.345 290.242 -41.8719 291.351C-27.3985 292.461 -11.1601 296.159 6.84334 302.445C8.25533 299.487 9.84383 296.159 11.609 292.461C19.3751 273.602 31.0244 251.23 46.5567 225.345C61.736 199.461 80.7984 179.307 103.744 164.886C119.629 157.121 139.398 156.196 163.049 162.113C186.348 168.029 208.058 178.383 228.179 193.174C248.301 208.335 261.362 225.53 267.363 244.759C273.364 271.383 272.835 300.226 265.774 331.288C258.714 362.719 248.477 391.932 235.063 418.926C222.002 445.92 208.764 466.073 195.349 479.385C190.76 484.193 185.642 488.63 179.994 492.698C177.523 494.546 175.051 496.395 172.58 498.244C175.405 513.775 176.993 529.306 177.346 544.837C177.346 560.368 173.993 575.159 167.285 589.211C157.401 605.111 138.162 613.062 109.569 613.062C80.6219 613.431 52.3813 604.557 24.8468 586.437C-2.68788 568.318 -19.4557 540.03 -25.4569 501.572C-28.2809 475.318 -27.9279 449.618 -24.3979 424.473C-21.2209 399.697 -16.4552 374.367 -10.1011 348.483C-17.1612 344.415 -27.3985 341.272 -40.8128 339.053C-54.2271 337.204 -68.1709 337.574 -82.6441 340.163ZM179.994 216.47C153.871 232.741 134.103 251.97 120.688 274.156C106.921 296.343 95.4482 320.194 86.2701 345.709C110.628 362.349 129.16 384.351 141.869 411.715C146.811 405.799 153.342 390.453 161.461 365.678C169.227 341.272 175.581 314.832 180.523 286.359C185.112 257.886 184.936 234.59 179.994 216.47ZM70.3847 407.833C65.4426 421.884 62.795 438.525 62.442 457.753C61.7361 477.352 62.6185 495.471 65.0896 512.111C67.5606 529.121 70.9143 540.954 75.1504 547.61C95.9778 515.439 94.3893 468.847 70.3847 407.833Z" fill="#FDC1C5"/>
</g>
</svg>
