<svg width="761" height="413" fill="none" xmlns="http://www.w3.org/2000/svg"><path d="M7.293 260.679a1 1 0 0 1 1.414 0l6.364 6.364a1 1 0 1 1-1.414 1.414L8 262.8l-5.657 5.657a1.001 1.001 0 0 1-1.414-1.414l6.364-6.364ZM455 395.386l-.647-.762.647.762Zm126.189-14.504-.157-.987.157.987ZM283.5 209.386v1-1Zm-274.5 52c0 2.194.017 4.343.05 6.447l-2 .032c-.033-2.115-.05-4.275-.05-6.479h2Zm.45 18.55c.224 4.352.53 8.485.915 12.407l-1.99.196c-.388-3.956-.697-8.12-.922-12.5l1.997-.103Zm2.445 24.45c.675 4.237 1.462 8.169 2.355 11.812l-1.942.476c-.908-3.701-1.706-7.688-2.388-11.974l1.975-.314Zm5.907 23.395c1.589 4.181 3.37 7.817 5.327 10.951l-1.696 1.059c-2.035-3.26-3.872-7.016-5.5-11.3l1.87-.71Zm13.06 20.103c3.15 2.671 6.587 4.54 10.284 5.7l-.6 1.908c-3.952-1.24-7.625-3.24-10.977-6.083l1.294-1.525Zm22.038 7.145c3.79-.145 7.78-.8 11.95-1.911l.516 1.933c-4.286 1.142-8.426 1.825-12.39 1.977l-.076-1.999Zm23.448-5.903c3.575-1.501 7.244-3.259 10.995-5.245l.936 1.768c-3.796 2.009-7.52 3.794-11.157 5.321l-.774-1.844Zm21.622-11.32a277.253 277.253 0 0 0 10.32-6.642l1.118 1.659a279.925 279.925 0 0 1-10.396 6.69l-1.042-1.707Zm20.396-13.686a501.683 501.683 0 0 0 9.854-7.315l1.211 1.591a504.874 504.874 0 0 1-9.894 7.345l-1.171-1.621Zm19.543-14.835a896.55 896.55 0 0 0 9.588-7.687l1.261 1.553a918.33 918.33 0 0 1-9.609 7.704l-1.24-1.57Zm19.099-15.493a2098.71 2098.71 0 0 0 9.456-7.882l1.285 1.533a2171.87 2171.87 0 0 1-9.465 7.889l-1.276-1.54Zm18.872-15.795c3.15-2.653 6.29-5.299 9.414-7.924l1.287 1.531c-3.123 2.625-6.262 5.27-9.413 7.923l-1.288-1.53Zm18.868-15.835a1372.41 1372.41 0 0 1 9.509-7.851l1.266 1.548a1406.815 1406.815 0 0 0-9.496 7.84l-1.279-1.537Zm19.105-15.595a609.197 609.197 0 0 1 9.724-7.578l1.213 1.59a607.285 607.285 0 0 0-9.693 7.554l-1.244-1.566Zm19.639-14.919a285.568 285.568 0 0 1 10.191-6.99l1.093 1.675a282.611 282.611 0 0 0-10.119 6.941l-1.165-1.626Zm20.775-13.432c3.843-2.152 7.554-4.002 11.112-5.498l.775 1.844c-3.475 1.46-7.118 3.275-10.91 5.399l-.977-1.745Zm22.987-9.217c2.159-.402 4.243-.613 6.246-.613v2c-1.863 0-3.824.196-5.879.579l-.367-1.966Zm6.246-.613c2.034 0 4.02.09 5.958.268l-.182 1.992a63.255 63.255 0 0 0-5.776-.26v-2Zm17.451 2.473a56.33 56.33 0 0 1 10.821 4.519l-.957 1.756a54.38 54.38 0 0 0-10.438-4.36l.574-1.915Zm20.519 11.104c2.969 2.444 5.763 5.171 8.401 8.141l-1.496 1.328c-2.575-2.9-5.295-5.553-8.176-7.925l1.271-1.544Zm15.595 17.351a127.086 127.086 0 0 1 6.173 9.907l-1.743.982a124.976 124.976 0 0 0-6.074-9.75l1.644-1.139Zm11.517 20.25a219.862 219.862 0 0 1 4.691 10.619l-1.849.761a218.673 218.673 0 0 0-4.649-10.521l1.807-.859ZM357.467 281a391.467 391.467 0 0 1 3.815 10.951l-1.898.631a390.33 390.33 0 0 0-3.795-10.894l1.878-.688Zm7.35 21.987a861.51 861.51 0 0 1 3.342 11.089l-1.918.566a865.53 865.53 0 0 0-3.335-11.064l1.911-.591Zm6.574 22.205c1.078 3.743 2.142 7.454 3.203 11.118l-1.921.557c-1.062-3.666-2.127-7.382-3.204-11.121l1.922-.554Zm6.467 22.214a558.91 558.91 0 0 0 3.431 11.038l-1.903.616a559.561 559.561 0 0 1-3.443-11.078l1.915-.576Zm7.163 21.96c1.362 3.746 2.762 7.321 4.216 10.69l-1.836.793c-1.473-3.413-2.887-7.025-4.26-10.8l1.88-.683Zm9.214 20.976c1.986 3.584 4.078 6.778 6.305 9.52l-1.552 1.261c-2.318-2.854-4.474-6.151-6.503-9.812l1.75-.969Zm14.535 17.066c3.162 1.994 6.583 3.202 10.333 3.512l-.165 1.993c-4.092-.338-7.819-1.66-11.235-3.814l1.067-1.691Zm21.391 2.057c3.16-1.013 6.534-2.548 10.147-4.661l1.009 1.727c-3.714 2.172-7.222 3.773-10.545 4.839l-.611-1.905Zm19.556-11.08a129.156 129.156 0 0 0 4.636-3.761l1.294 1.524a129.682 129.682 0 0 1-4.708 3.82l-1.222-1.583Zm4.636-3.761a487.953 487.953 0 0 0 4.556-3.921l1.314 1.508a467.498 467.498 0 0 1-4.576 3.937l-1.294-1.524Zm13.311-11.752a425.242 425.242 0 0 0 8.541-8.062l1.393 1.435a426.214 426.214 0 0 1-8.581 8.1l-1.353-1.473Zm16.831-16.347a374.237 374.237 0 0 0 8.075-8.577l1.478 1.348a376.155 376.155 0 0 1-8.118 8.623l-1.435-1.394Zm15.777-17.307a327.168 327.168 0 0 0 7.52-9.145l1.568 1.242a329.718 329.718 0 0 1-7.566 9.201l-1.522-1.298Zm14.578-18.411a282.567 282.567 0 0 0 6.754-9.641l1.662 1.113a286.584 286.584 0 0 1-6.802 9.709l-1.614-1.181Zm13.079-19.552a244.96 244.96 0 0 0 5.806-10.098l1.757.955a246.49 246.49 0 0 1-5.853 10.181l-1.71-1.038Zm11.143-20.553c1.728-3.616 3.317-7.2 4.772-10.748l1.851.76a210.947 210.947 0 0 1-4.818 10.85l-1.805-.862ZM547.96 269a176.895 176.895 0 0 0 3.405-11.164l1.932.52c-1 3.715-2.146 7.479-3.444 11.289L547.96 269Zm6.037-22.524c.76-3.92 1.352-7.774 1.784-11.556l1.987.227a152.294 152.294 0 0 1-1.808 11.71l-1.963-.381Zm2.628-23.227c.117-3.99.051-7.885-.186-11.679l1.996-.125c.241 3.856.308 7.813.189 11.862l-1.999-.058Zm-1.483-23.269a107.66 107.66 0 0 0-2.492-11.385l1.927-.534a109.229 109.229 0 0 1 2.538 11.597l-1.973.322Zm-6.261-22.435a90.332 90.332 0 0 0-5.092-10.482l1.738-.989a92.378 92.378 0 0 1 5.205 10.713l-1.851.758Zm-11.527-20.161a75.92 75.92 0 0 0-7.758-8.611l1.377-1.45a77.788 77.788 0 0 1 7.963 8.838l-1.582 1.223Zm-16.8-15.888a64.857 64.857 0 0 0-10.137-5.6l.805-1.831a66.867 66.867 0 0 1 10.45 5.773l-1.118 1.658Zm-21.114-9.249a60.581 60.581 0 0 0-11.456-1.51l.071-1.998c4.02.143 7.975.669 11.834 1.559l-.449 1.949Zm-23.012-.838a66.913 66.913 0 0 0-11.274 2.74l-.636-1.897a68.964 68.964 0 0 1 11.61-2.82l.3 1.977Zm-21.918 7.275a85.533 85.533 0 0 0-9.908 6.051l-1.153-1.634a87.322 87.322 0 0 1 10.14-6.192l.921 1.775Zm-18.995 13.322a111.73 111.73 0 0 0-4.308 4.087l-1.414-1.414a112.728 112.728 0 0 1 4.385-4.16l1.337 1.487Zm-4.308 4.087a41.843 41.843 0 0 0-3.77 4.371l-1.596-1.205a43.69 43.69 0 0 1 3.952-4.58l1.414 1.414Zm-9.855 14.261c-1.669 3.267-3.242 6.859-4.696 10.73l-1.872-.703c1.477-3.933 3.08-7.595 4.786-10.937l1.782.91Zm-8.342 21.916a165.635 165.635 0 0 0-2.778 11.474l-1.959-.403a167.167 167.167 0 0 1 2.812-11.612l1.925.541Zm-4.773 23.054a195.867 195.867 0 0 0-1.283 11.708l-1.994-.159c.32-4.018.755-7.968 1.296-11.826l1.981.277Zm-1.873 23.48c-.08 3.893-.049 7.828.104 11.788l-1.999.077c-.154-4-.186-7.975-.104-11.906l1.999.041Zm.914 23.545c.389 3.893.901 7.791 1.544 11.677l-1.973.327c-.65-3.93-1.168-7.871-1.561-11.805l1.99-.199Zm3.857 23.219a159.199 159.199 0 0 0 3.126 11.341l-1.907.604a161.147 161.147 0 0 1-3.165-11.484l1.946-.461Zm7.112 22.403a135.193 135.193 0 0 0 4.892 10.683l-1.78.912a137.353 137.353 0 0 1-4.964-10.841l1.852-.754Zm10.723 20.872a116.9 116.9 0 0 0 6.785 9.57l-1.571 1.238a119.187 119.187 0 0 1-6.901-9.733l1.687-1.075Zm14.51 18.389a109.14 109.14 0 0 0 8.617 7.945l-1.275 1.541a111.132 111.132 0 0 1-8.774-8.091l1.432-1.395Zm18.036 14.917c3.203 2.116 6.569 4.1 10.105 5.939l-.923 1.774a114.57 114.57 0 0 1-10.284-6.044l1.102-1.669Zm20.761 10.824a129.036 129.036 0 0 0 11.077 3.857l-.572 1.916a130.308 130.308 0 0 1-11.249-3.917l.744-1.856Zm22.468 6.74c3.745.786 7.619 1.45 11.624 1.982l-.263 1.982a159.211 159.211 0 0 1-11.773-2.007l.412-1.957Zm23.394 3.137c3.782.246 7.67.383 11.668.406l-.012 2a200.43 200.43 0 0 1-11.785-.41l.129-1.996Zm23.423.154c3.865-.183 7.823-.467 11.878-.855l.19 1.991a250.11 250.11 0 0 1-11.973.862l-.095-1.998Zm23.479-2.217c1.976-.274 3.973-.571 5.991-.892l.314 1.975c-2.031.323-4.041.622-6.031.898l-.274-1.981Zm5.991-.892a96.762 96.762 0 0 0 5.985-1.142l.439 1.951c-1.962.441-3.998.83-6.11 1.166l-.314-1.975Zm16.996-4.467c3.791-1.484 7.194-3.226 10.24-5.206l1.09 1.677c-3.168 2.059-6.693 3.862-10.601 5.392l-.729-1.863Zm19.032-12.565a46.26 46.26 0 0 0 6.684-9.303l1.754.961c-1.925 3.512-4.234 6.757-6.972 9.703l-1.466-1.361Zm11.1-19.933c1.086-3.572 1.897-7.354 2.465-11.326l1.98.282c-.58 4.061-1.412 7.943-2.531 11.626l-1.914-.582Zm3.442-22.948c.122-3.781.079-7.693-.107-11.723l1.998-.092c.188 4.074.232 8.039.108 11.88l-1.999-.065Zm-1.001-23.457a287.443 287.443 0 0 0-1.443-11.567l1.979-.286c.571 3.954 1.061 7.84 1.454 11.647l-1.99.206Zm-3.298-23.142a565.427 565.427 0 0 0-2.154-11.582l1.963-.385a564.343 564.343 0 0 1 2.161 11.623l-1.97.344Zm-4.509-23.137c-.798-3.788-1.624-7.611-2.467-11.462l1.954-.428c.844 3.855 1.671 7.683 2.47 11.478l-1.957.412Zm-5.007-22.966c-.847-3.82-1.701-7.661-2.548-11.516l1.953-.429c.847 3.852 1.7 7.691 2.548 11.512l-1.953.433Zm-5.045-23.013c-.82-3.843-1.625-7.693-2.404-11.545l1.961-.396c.777 3.843 1.58 7.686 2.399 11.523l-1.956.418Zm-4.653-23.101a575.786 575.786 0 0 1-2.049-11.632l1.973-.326a582.6 582.6 0 0 0 2.042 11.591l-1.966.367Zm-3.826-23.306a362.175 362.175 0 0 1-1.431-11.684l1.989-.209c.406 3.847.884 7.722 1.423 11.619l-1.981.274Zm-2.443-23.473a240.217 240.217 0 0 1-.487-11.831l1.999-.032c.061 3.868.227 7.781.484 11.733l-1.996.13Zm-.333-23.639a164.1 164.1 0 0 1 .926-11.757l1.987.231c-.443 3.806-.743 7.68-.915 11.613l-1.998-.087Zm2.798-23.502a115.51 115.51 0 0 1 2.969-11.491l1.907.601a113.468 113.468 0 0 0-2.917 11.293l-1.959-.403Zm7.182-22.573a90.97 90.97 0 0 1 5.564-10.486l1.701 1.051a89.11 89.11 0 0 0-5.442 10.257l-1.823-.822Zm12.513-20.18a88.504 88.504 0 0 1 8.13-8.59l1.359 1.467a86.504 86.504 0 0 0-7.947 8.398l-1.542-1.274Zm17.283-16.05a106.867 106.867 0 0 1 10.05-6.382l.979 1.744a104.992 104.992 0 0 0-9.863 6.264l-1.166-1.625Zm20.697-11.685a144.915 144.915 0 0 1 10.87-4.264l.657 1.889a143.027 143.027 0 0 0-10.72 4.205l-.807-1.83Zm22.417-7.815a201.105 201.105 0 0 1 11.217-2.68l.41 1.957a198.927 198.927 0 0 0-11.105 2.653l-.522-1.93ZM707.463 4.1a273.447 273.447 0 0 1 11.409-1.535l.226 1.987c-3.896.443-7.671.951-11.326 1.524l-.309-1.976Zm23.547-2.672c3.692-.275 7.481-.498 11.371-.665l.086 1.999c-3.87.166-7.638.387-11.308.66l-.149-1.994Zm23.298-1c2.039-.027 4.102-.042 6.192-.042v2c-2.081 0-4.135.014-6.164.042l-.028-2Z" fill="#E890DA"/></svg>