<svg xmlns="http://www.w3.org/2000/svg" width="500" viewBox="0 0 375 375" height="500" version="1.0"><path d="M65.715 185.384H45.668V155.29H22.496v30.094H2.449v-73.812h20.047v27.375h23.172v-27.375h20.047ZM142.355 185.384l-3.641-13.828H114.73l-3.735 13.828H89.09l24.078-74.11h26.61l24.374 74.11Zm-7.782-30.187-3.172-12.125c-.75-2.688-1.656-6.165-2.718-10.438-1.055-4.281-1.746-7.344-2.078-9.187-.305 1.71-.903 4.53-1.797 8.468-.899 3.938-2.875 11.7-5.938 23.282ZM207.48 158.525v26.86h-19.953v-73.813h24.188c20.062 0 30.093 7.273 30.093 21.812 0 8.555-4.18 15.168-12.531 19.844l21.516 32.156h-22.625l-15.641-26.86Zm0-14.985h3.735c6.968 0 10.453-3.082 10.453-9.25 0-5.082-3.418-7.625-10.25-7.625h-3.938ZM272.898 185.384v-73.812h20.047v73.812ZM372.563 162.962c0 4.586-1.164 8.653-3.484 12.203-2.325 3.555-5.672 6.313-10.047 8.282-4.375 1.968-9.508 2.953-15.39 2.953-4.919 0-9.044-.344-12.376-1.032-3.336-.695-6.797-1.906-10.39-3.625v-17.765a59.455 59.455 0 0 0 11.859 4.562c4.101 1.094 7.875 1.64 11.312 1.64 2.957 0 5.125-.507 6.5-1.53 1.383-1.032 2.078-2.352 2.078-3.97 0-1.007-.28-1.89-.843-2.64-.555-.758-1.446-1.523-2.672-2.297-1.219-.78-4.492-2.363-9.813-4.75-4.812-2.187-8.422-4.304-10.828-6.359-2.406-2.05-4.195-4.406-5.36-7.062-1.155-2.665-1.734-5.817-1.734-9.454 0-6.789 2.473-12.086 7.422-15.89 4.946-3.813 11.743-5.719 20.391-5.719 7.645 0 15.437 1.773 23.375 5.313l-6.11 15.39c-6.898-3.164-12.851-4.75-17.859-4.75-2.594 0-4.48.461-5.656 1.375-1.18.906-1.766 2.031-1.766 3.375 0 1.45.743 2.746 2.235 3.89 1.5 1.15 5.566 3.235 12.203 6.266 6.351 2.856 10.765 5.922 13.234 9.204 2.477 3.28 3.719 7.414 3.719 12.39ZM35.276 278.098 19.214 256.52l-8.313 9.14v12.438h-8.25v-48.89h8.25v25.28l23.328-25.28h9.704l-18.922 20.89 20.172 28ZM100.022 229.207v28.64c0 6.376-1.887 11.403-5.656 15.079-3.774 3.68-8.965 5.516-15.578 5.516-6.617 0-11.82-1.836-15.61-5.516-3.793-3.676-5.687-8.703-5.687-15.078v-28.64h8.234v28.64c0 4.094 1.176 7.32 3.532 9.672 2.351 2.355 5.55 3.53 9.593 3.53 4.008 0 7.164-1.16 9.47-3.483 2.3-2.332 3.452-5.57 3.452-9.72v-28.64ZM148.497 278.098l-8.938-14.813c-.469.055-1.215.078-2.234.078H125.73v14.735h-8.25v-48.89h19.844c6.238 0 11.078 1.46 14.515 4.374 3.446 2.906 5.172 7.012 5.172 12.313 0 3.918-.875 7.226-2.625 9.922-1.742 2.699-4.242 4.68-7.5 5.937l10.969 16.344Zm-22.766-22.14h11.594c7.914 0 11.875-3.282 11.875-9.845 0-6.332-3.961-9.5-11.875-9.5H125.73ZM207.03 236.613h-15.5v41.485h-8.25v-41.485h-15.438v-7.406h39.187ZM227.988 278.098h-8.25v-48.89h8.25ZM262.554 228.863c6.332 0 12.035 1.672 17.11 5.016l-3.423 7.266c-4.98-3.02-9.75-4.532-14.312-4.532-2.469 0-4.414.446-5.828 1.329-1.418.886-2.125 2.148-2.125 3.78 0 1.626.648 3.013 1.953 4.157 1.3 1.137 2.926 1.969 4.875 2.5 1.957.531 4.078 1.211 6.36 2.031a75.721 75.721 0 0 1 6.359 2.578c1.957.907 3.578 2.329 4.86 4.266 1.28 1.93 1.92 4.266 1.92 7.016 0 4.28-1.714 7.703-5.14 10.265-3.418 2.563-7.851 3.844-13.297 3.844-3.73 0-7.34-.695-10.828-2.094-3.492-1.394-6.543-3.28-9.156-5.656l3.563-7.125c2.468 2.281 5.18 4.043 8.14 5.281 2.957 1.23 5.766 1.844 8.422 1.844 2.883 0 5.129-.52 6.734-1.562 1.602-1.051 2.407-2.508 2.407-4.375 0-1.676-.653-3.082-1.953-4.22-1.305-1.144-2.934-1.984-4.891-2.515-1.961-.539-4.078-1.195-6.36-1.969a78.735 78.735 0 0 1-6.359-2.437c-1.949-.863-3.578-2.25-4.89-4.156-1.305-1.907-1.954-4.211-1.954-6.922 0-4.145 1.63-7.445 4.891-9.906 3.258-2.47 7.566-3.704 12.922-3.704ZM338.001 278.098h-8.25v-20.25h-25.906v20.25h-8.25v-48.89h8.25v21.234h25.906v-21.235h8.25ZM364.752 278.098h-8.25v-48.89h8.25Zm0 0"/></svg>