<svg xmlns="http://www.w3.org/2000/svg" width="500" viewBox="0 0 375 375" height="500" version="1.0"><path fill="#FFF" d="M-37.5-37.5h450v450h-450z"/><path fill="#FFF" d="M-37.5-37.5h450v450h-450z"/><path fill="#FFF" d="M-37.5-37.5h450v450h-450z"/><path fill="#FFF" d="M-37.5-37.5h450v450h-450z"/><path d="M62.502 189.013H50.3V159.03h-38.36v29.984H-.263v-72.39H11.94v31.437h38.359v-31.437h12.203ZM143.674 172.67h-36.5l-6.922 16.343h-12.72l31.954-72.39h12.5l31.64 72.39h-13.015Zm-4.657-10.86-13.64-32.156-13.657 32.156ZM234.568 189.013l-13.235-21.921c-.687.074-1.793.109-3.312.109h-17.157v21.812h-12.203v-72.39h29.36c9.238 0 16.41 2.156 21.515 6.469 5.102 4.312 7.657 10.398 7.657 18.25 0 5.792-1.297 10.687-3.891 14.687-2.586 4-6.29 6.93-11.11 8.781l16.235 24.203Zm-33.704-32.78h17.157c11.718 0 17.578-4.86 17.578-14.579 0-9.375-5.86-14.062-17.578-14.062h-17.157ZM291.036 189.013h-12.204v-72.39h12.204ZM349.25 116.107c9.376 0 17.817 2.485 25.329 7.453l-5.063 10.75c-7.375-4.476-14.445-6.718-21.203-6.718-3.648 0-6.523.656-8.625 1.968-2.105 1.305-3.156 3.164-3.156 5.578 0 2.418.96 4.47 2.89 6.157 1.938 1.687 4.352 2.93 7.25 3.718 2.895.793 6.032 1.793 9.407 3 3.375 1.211 6.508 2.485 9.406 3.829 2.895 1.343 5.29 3.449 7.188 6.312 1.894 2.855 2.843 6.32 2.843 10.39 0 6.337-2.539 11.4-7.61 15.188-5.062 3.793-11.624 5.688-19.687 5.688a42.842 42.842 0 0 1-16.03-3.094c-5.169-2.07-9.684-4.863-13.548-8.375l5.282-10.547c3.644 3.375 7.656 5.98 12.03 7.813 4.384 1.824 8.54 2.734 12.47 2.734 4.269 0 7.593-.774 9.968-2.328 2.383-1.551 3.578-3.707 3.578-6.469 0-2.477-.968-4.562-2.906-6.25-1.93-1.687-4.34-2.926-7.234-3.719-2.899-.789-6.031-1.754-9.406-2.89-3.375-1.145-6.512-2.352-9.407-3.625-2.898-1.282-5.312-3.332-7.25-6.157-1.93-2.82-2.89-6.234-2.89-10.234 0-6.133 2.41-11.031 7.234-14.687 4.832-3.657 11.21-5.485 19.14-5.485ZM33.01 237.9H21.918l-7.203-13.922-2.906 1.75V237.9h-9.89v-36.406h9.89v15.812c.488-.976 1.488-2.531 3-4.656l7.656-11.156h10.75L21.73 217.806ZM87.44 201.494V223.4c0 4.773-1.35 8.465-4.046 11.078-2.7 2.617-6.59 3.922-11.672 3.922-4.96 0-8.773-1.27-11.437-3.813-2.668-2.539-4-6.19-4-10.953v-22.14h9.89v21.36c0 2.573.477 4.444 1.438 5.608.968 1.168 2.39 1.75 4.265 1.75 2.008 0 3.461-.578 4.36-1.734.906-1.156 1.36-3.047 1.36-5.672v-21.312ZM124.447 224.65v13.25h-9.828v-36.406h11.922c9.895 0 14.844 3.586 14.844 10.75 0 4.218-2.059 7.484-6.172 9.797l10.61 15.859h-11.157l-7.719-13.25Zm0-7.39h1.844c3.438 0 5.156-1.52 5.156-4.563 0-2.508-1.683-3.766-5.046-3.766h-1.954ZM184.73 237.9h-9.844v-28.36h-8.89v-8.046h27.593v8.047h-8.86ZM218.332 237.9v-36.406h9.89V237.9ZM279.417 226.837c0 2.262-.574 4.266-1.719 6.016-1.136 1.75-2.789 3.117-4.953 4.094-2.156.969-4.687 1.453-7.594 1.453-2.417 0-4.449-.168-6.093-.5-1.649-.344-3.36-.941-5.14-1.797v-8.766a29.222 29.222 0 0 0 5.858 2.266c2.02.531 3.88.797 5.579.797 1.457 0 2.523-.25 3.203-.75.687-.508 1.031-1.16 1.031-1.953 0-.5-.14-.938-.422-1.313-.273-.375-.71-.75-1.312-1.125-.606-.382-2.22-1.164-4.844-2.343-2.375-1.082-4.156-2.13-5.344-3.141-1.187-1.008-2.07-2.172-2.64-3.484-.575-1.313-.86-2.864-.86-4.657 0-3.351 1.219-5.968 3.656-7.843 2.446-1.883 5.805-2.829 10.078-2.829 3.758 0 7.598.875 11.516 2.625l-3 7.594c-3.406-1.562-6.351-2.344-8.828-2.344-1.273 0-2.2.227-2.781.672-.586.45-.875 1.008-.875 1.672 0 .711.367 1.352 1.11 1.922.737.563 2.741 1.59 6.015 3.078 3.133 1.418 5.312 2.934 6.531 4.547 1.219 1.617 1.828 3.652 1.828 6.11ZM335.79 237.9h-9.89v-14.844h-11.422V237.9h-9.89v-36.406h9.89v13.5H325.9v-13.5h9.89ZM363.193 237.9v-36.406h9.89V237.9Zm0 0"/></svg>