
<svg xmlns="http://www.w3.org/2000/svg" xmlns:xlink="http://www.w3.org/1999/xlink" width="129" zoomAndPan="magnify" viewBox="0 0 96.75 30.000001" height="40" preserveAspectRatio="xMidYMid meet" version="1.0"><defs><g/></defs><g fill="#efefef" fill-opacity="1"><g transform="translate(15.963465, 27.153655)"><g><path d="M 4.375 -6.078125 L 9.9375 0 L 8.15625 0 L 2.953125 -5.703125 L 2.953125 0 L 1.59375 0 L 1.59375 -11.796875 L 2.953125 -11.796875 L 2.953125 -6.3125 L 7.90625 -11.796875 L 9.546875 -11.796875 Z M 4.375 -6.078125 "/></g></g></g><g fill="#efefef" fill-opacity="1"><g transform="translate(25.477257, 27.153655)"><g><path d="M 5.84375 0.171875 C 4.96875 0.171875 4.195312 -0.015625 3.53125 -0.390625 C 2.863281 -0.765625 2.347656 -1.296875 1.984375 -1.984375 C 1.617188 -2.671875 1.4375 -3.457031 1.4375 -4.34375 L 1.4375 -11.796875 L 2.78125 -11.796875 L 2.78125 -4.34375 C 2.78125 -3.363281 3.054688 -2.578125 3.609375 -1.984375 C 4.160156 -1.390625 4.90625 -1.09375 5.84375 -1.09375 C 6.789062 -1.09375 7.535156 -1.390625 8.078125 -1.984375 C 8.628906 -2.578125 8.90625 -3.363281 8.90625 -4.34375 L 8.90625 -11.796875 L 10.265625 -11.796875 L 10.265625 -4.34375 C 10.265625 -3.457031 10.078125 -2.671875 9.703125 -1.984375 C 9.335938 -1.296875 8.820312 -0.765625 8.15625 -0.390625 C 7.488281 -0.015625 6.71875 0.171875 5.84375 0.171875 Z M 5.84375 0.171875 "/></g></g></g><g fill="#efefef" fill-opacity="1"><g transform="translate(36.658124, 27.153655)"><g><path d="M 8.5 0 L 4.328125 -5.046875 L 2.953125 -5.046875 L 2.953125 0 L 1.59375 0 L 1.59375 -11.796875 L 5.046875 -11.796875 C 5.804688 -11.796875 6.472656 -11.648438 7.046875 -11.359375 C 7.628906 -11.066406 8.078125 -10.660156 8.390625 -10.140625 C 8.710938 -9.628906 8.875 -9.054688 8.875 -8.421875 C 8.875 -7.578125 8.609375 -6.851562 8.078125 -6.25 C 7.546875 -5.65625 6.828125 -5.28125 5.921875 -5.125 L 10.1875 0 Z M 2.953125 -10.53125 L 2.953125 -6.3125 L 5.046875 -6.3125 C 5.796875 -6.3125 6.390625 -6.503906 6.828125 -6.890625 C 7.265625 -7.273438 7.484375 -7.785156 7.484375 -8.421875 C 7.484375 -9.054688 7.265625 -9.566406 6.828125 -9.953125 C 6.390625 -10.335938 5.796875 -10.53125 5.046875 -10.53125 Z M 2.953125 -10.53125 "/></g></g></g><g fill="#efefef" fill-opacity="1"><g transform="translate(46.42451, 27.153655)"><g><path d="M 4.796875 0 L 3.453125 0 L 3.453125 -10.53125 L 0.421875 -10.53125 L 0.421875 -11.796875 L 7.828125 -11.796875 L 7.828125 -10.53125 L 4.796875 -10.53125 Z M 4.796875 0 "/></g></g></g><g fill="#efefef" fill-opacity="1"><g transform="translate(54.170206, 27.153655)"><g><path d="M 3.03125 0 L 1.6875 0 L 1.6875 -11.796875 L 3.03125 -11.796875 Z M 3.03125 0 "/></g></g></g><g fill="#efefef" fill-opacity="1"><g transform="translate(58.379702, 27.153655)"><g><path d="M 4.828125 0.171875 C 4.023438 0.171875 3.328125 0.0195312 2.734375 -0.28125 C 2.140625 -0.582031 1.679688 -1.003906 1.359375 -1.546875 C 1.035156 -2.085938 0.863281 -2.695312 0.84375 -3.375 L 2.1875 -3.375 C 2.207031 -2.707031 2.445312 -2.160156 2.90625 -1.734375 C 3.375 -1.304688 4.015625 -1.09375 4.828125 -1.09375 C 5.554688 -1.09375 6.132812 -1.265625 6.5625 -1.609375 C 7 -1.960938 7.21875 -2.4375 7.21875 -3.03125 C 7.21875 -3.488281 7.097656 -3.863281 6.859375 -4.15625 C 6.617188 -4.457031 6.316406 -4.691406 5.953125 -4.859375 C 5.597656 -5.035156 5.117188 -5.21875 4.515625 -5.40625 C 3.773438 -5.664062 3.1875 -5.90625 2.75 -6.125 C 2.3125 -6.34375 1.929688 -6.671875 1.609375 -7.109375 C 1.296875 -7.546875 1.140625 -8.125 1.140625 -8.84375 C 1.140625 -9.425781 1.296875 -9.953125 1.609375 -10.421875 C 1.929688 -10.898438 2.367188 -11.273438 2.921875 -11.546875 C 3.472656 -11.816406 4.097656 -11.953125 4.796875 -11.953125 C 5.460938 -11.953125 6.066406 -11.804688 6.609375 -11.515625 C 7.148438 -11.234375 7.582031 -10.835938 7.90625 -10.328125 C 8.238281 -9.828125 8.410156 -9.273438 8.421875 -8.671875 L 7.078125 -8.671875 C 7.054688 -9.265625 6.828125 -9.75 6.390625 -10.125 C 5.953125 -10.507812 5.40625 -10.703125 4.75 -10.703125 C 4.113281 -10.703125 3.585938 -10.539062 3.171875 -10.21875 C 2.753906 -9.90625 2.546875 -9.445312 2.546875 -8.84375 C 2.546875 -8.414062 2.660156 -8.0625 2.890625 -7.78125 C 3.117188 -7.5 3.40625 -7.28125 3.75 -7.125 C 4.09375 -6.96875 4.566406 -6.78125 5.171875 -6.5625 C 5.898438 -6.332031 6.492188 -6.097656 6.953125 -5.859375 C 7.421875 -5.628906 7.816406 -5.285156 8.140625 -4.828125 C 8.460938 -4.367188 8.625 -3.769531 8.625 -3.03125 C 8.625 -2.425781 8.457031 -1.878906 8.125 -1.390625 C 7.789062 -0.898438 7.335938 -0.515625 6.765625 -0.234375 C 6.191406 0.0351562 5.546875 0.171875 4.828125 0.171875 Z M 4.828125 0.171875 "/></g></g></g><g fill="#efefef" fill-opacity="1"><g transform="translate(67.337805, 27.153655)"><g><path d="M 9.1875 -6.734375 L 9.1875 -11.796875 L 10.53125 -11.796875 L 10.53125 0 L 9.1875 0 L 9.1875 -5.46875 L 2.953125 -5.46875 L 2.953125 0 L 1.59375 0 L 1.59375 -11.796875 L 2.953125 -11.796875 L 2.953125 -6.734375 Z M 9.1875 -6.734375 "/></g></g></g><g fill="#efefef" fill-opacity="1"><g transform="translate(78.956482, 27.153655)"><g><path d="M 3.03125 0 L 1.6875 0 L 1.6875 -11.796875 L 3.03125 -11.796875 Z M 3.03125 0 "/></g></g></g><g fill="#efefef" fill-opacity="1"><g transform="translate(15.966903, 13.305462)"><g><path d="M 9.1875 -6.734375 L 9.1875 -11.796875 L 10.53125 -11.796875 L 10.53125 0 L 9.1875 0 L 9.1875 -5.46875 L 2.953125 -5.46875 L 2.953125 0 L 1.59375 0 L 1.59375 -11.796875 L 2.953125 -11.796875 L 2.953125 -6.734375 Z M 9.1875 -6.734375 "/></g></g></g><g fill="#efefef" fill-opacity="1"><g transform="translate(33.145379, 13.305462)"><g><path d="M 10.953125 0 L 9.5 0 L 8.234375 -3.203125 L 3.015625 -3.203125 L 1.75 0 L 0.34375 0 L 5.140625 -11.796875 L 6.140625 -11.796875 Z M 7.734375 -4.46875 L 5.625 -9.78125 L 3.515625 -4.46875 Z M 7.734375 -4.46875 "/></g></g></g><g fill="#efefef" fill-opacity="1"><g transform="translate(49.481897, 13.305462)"><g><path d="M 8.5 0 L 4.328125 -5.046875 L 2.953125 -5.046875 L 2.953125 0 L 1.59375 0 L 1.59375 -11.796875 L 5.046875 -11.796875 C 5.804688 -11.796875 6.472656 -11.648438 7.046875 -11.359375 C 7.628906 -11.066406 8.078125 -10.660156 8.390625 -10.140625 C 8.710938 -9.628906 8.875 -9.054688 8.875 -8.421875 C 8.875 -7.578125 8.609375 -6.851562 8.078125 -6.25 C 7.546875 -5.65625 6.828125 -5.28125 5.921875 -5.125 L 10.1875 0 Z M 2.953125 -10.53125 L 2.953125 -6.3125 L 5.046875 -6.3125 C 5.796875 -6.3125 6.390625 -6.503906 6.828125 -6.890625 C 7.265625 -7.273438 7.484375 -7.785156 7.484375 -8.421875 C 7.484375 -9.054688 7.265625 -9.566406 6.828125 -9.953125 C 6.390625 -10.335938 5.796875 -10.53125 5.046875 -10.53125 Z M 2.953125 -10.53125 "/></g></g></g><g fill="#efefef" fill-opacity="1"><g transform="translate(64.80808, 13.305462)"><g><path d="M 3.03125 0 L 1.6875 0 L 1.6875 -11.796875 L 3.03125 -11.796875 Z M 3.03125 0 "/></g></g></g><g fill="#efefef" fill-opacity="1"><g transform="translate(74.577372, 13.305462)"><g><path d="M 4.828125 0.171875 C 4.023438 0.171875 3.328125 0.0195312 2.734375 -0.28125 C 2.140625 -0.582031 1.679688 -1.003906 1.359375 -1.546875 C 1.035156 -2.085938 0.863281 -2.695312 0.84375 -3.375 L 2.1875 -3.375 C 2.207031 -2.707031 2.445312 -2.160156 2.90625 -1.734375 C 3.375 -1.304688 4.015625 -1.09375 4.828125 -1.09375 C 5.554688 -1.09375 6.132812 -1.265625 6.5625 -1.609375 C 7 -1.960938 7.21875 -2.4375 7.21875 -3.03125 C 7.21875 -3.488281 7.097656 -3.863281 6.859375 -4.15625 C 6.617188 -4.457031 6.316406 -4.691406 5.953125 -4.859375 C 5.597656 -5.035156 5.117188 -5.21875 4.515625 -5.40625 C 3.773438 -5.664062 3.1875 -5.90625 2.75 -6.125 C 2.3125 -6.34375 1.929688 -6.671875 1.609375 -7.109375 C 1.296875 -7.546875 1.140625 -8.125 1.140625 -8.84375 C 1.140625 -9.425781 1.296875 -9.953125 1.609375 -10.421875 C 1.929688 -10.898438 2.367188 -11.273438 2.921875 -11.546875 C 3.472656 -11.816406 4.097656 -11.953125 4.796875 -11.953125 C 5.460938 -11.953125 6.066406 -11.804688 6.609375 -11.515625 C 7.148438 -11.234375 7.582031 -10.835938 7.90625 -10.328125 C 8.238281 -9.828125 8.410156 -9.273438 8.421875 -8.671875 L 7.078125 -8.671875 C 7.054688 -9.265625 6.828125 -9.75 6.390625 -10.125 C 5.953125 -10.507812 5.40625 -10.703125 4.75 -10.703125 C 4.113281 -10.703125 3.585938 -10.539062 3.171875 -10.21875 C 2.753906 -9.90625 2.546875 -9.445312 2.546875 -8.84375 C 2.546875 -8.414062 2.660156 -8.0625 2.890625 -7.78125 C 3.117188 -7.5 3.40625 -7.28125 3.75 -7.125 C 4.09375 -6.96875 4.566406 -6.78125 5.171875 -6.5625 C 5.898438 -6.332031 6.492188 -6.097656 6.953125 -5.859375 C 7.421875 -5.628906 7.816406 -5.285156 8.140625 -4.828125 C 8.460938 -4.367188 8.625 -3.769531 8.625 -3.03125 C 8.625 -2.425781 8.457031 -1.878906 8.125 -1.390625 C 7.789062 -0.898438 7.335938 -0.515625 6.765625 -0.234375 C 6.191406 0.0351562 5.546875 0.171875 4.828125 0.171875 Z M 4.828125 0.171875 "/></g></g></g></svg>