
<svg width="1000" height="1000" viewBox="0 0 1000 1000" fill="none" xmlns="http://www.w3.org/2000/svg">
<path d="M489.5 226.499C328 231.632 280 346.999 269 409.499C283.333 386.332 328.5 335.5 395 335.5C472.5 335.5 531.5 422 567.5 449C611.237 481.803 699.123 525.115 814.5 490C906.5 462 949.167 364.332 958.5 317.999C914 378.499 846.5 414.838 763 371.999C705.5 342.499 662.5 221 489.5 226.499Z" fill="#07B6D5"/>
<path d="M261 500.999C99.5 506.132 51.5 621.499 40.5 683.999C54.8333 660.832 100 610 166.5 610C244 610 303 696.5 339 723.5C382.737 756.303 470.623 799.615 586 764.5C678 736.5 720.667 638.832 730 592.499C685.5 652.999 618 689.338 534.5 646.499C477 616.999 434 495.5 261 500.999Z" fill="#07B6D5"/>
</svg>

<svg width="1000" height="1000" viewBox="0 0 1000 1000" fill="none" xmlns="http://www.w3.org/2000/svg">
<path d="M25.517 0C18.712 0 14.46 3.382 12.758 10.146c2.552-3.382 5.529-4.65 8.931-3.805 1.941.482 3.329 1.882 4.864 3.432 2.502 2.524 5.398 5.445 11.722 5.445 6.804 0 11.057-3.382 12.758-10.145-2.551 3.382-5.528 4.65-8.93 3.804-1.942-.482-3.33-1.882-4.865-3.431C34.736 2.92 31.841 0 25.517 0zM12.758 15.218C5.954 15.218 1.701 18.6 0 25.364c2.552-3.382 5.529-4.65 8.93-3.805 1.942.482 3.33 1.882 4.865 3.432 2.502 2.524 5.397 5.445 11.722 5.445 6.804 0 11.057-3.381 12.758-10.145-2.552 3.382-5.529 4.65-8.931 3.805-1.941-.483-3.329-1.883-4.864-3.432-2.502-2.524-5.398-5.446-11.722-5.446z" fill="#38bdf8"/>
</svg>
