<svg width="144" height="344" fill="none" xmlns="http://www.w3.org/2000/svg"><g filter="url(#a)"><path fill-rule="evenodd" clip-rule="evenodd" d="M47 40a5 5 0 1 0 0-10 5 5 0 0 0 0 10Zm0 50a5 5 0 1 0 0-10 5 5 0 0 0 0 10Zm5 45a5 5 0 1 1-10 0 5 5 0 0 1 10 0Zm-5 55a5 5 0 1 0 0-10 5 5 0 0 0 0 10Zm5 45a5 5 0 1 1-10 0 5 5 0 0 1 10 0Zm-5 55a5 5 0 1 0 0-10 5 5 0 0 0 0 10Zm55-255a5 5 0 1 1-10 0 5 5 0 0 1 10 0Zm-5 55a5 5 0 1 0 0-10 5 5 0 0 0 0 10Zm5 45a5 5 0 1 1-10 0 5 5 0 0 1 10 0Zm-5 55a5 5 0 1 0 0-10 5 5 0 0 0 0 10Zm5 45a5 5 0 1 1-10 0 5 5 0 0 1 10 0Zm-5 55a5 5 0 1 0 0-10 5 5 0 0 0 0 10Z" fill="#E890DA"/></g><defs><filter id="a" x="0" y="0" width="144" height="344" filterUnits="userSpaceOnUse" color-interpolation-filters="sRGB"><feFlood flood-opacity="0" result="BackgroundImageFix"/><feColorMatrix in="SourceAlpha" values="0 0 0 0 0 0 0 0 0 0 0 0 0 0 0 0 0 0 127 0" result="hardAlpha"/><feOffset dy="12"/><feGaussianBlur stdDeviation="21"/><feColorMatrix values="0 0 0 0 1 0 0 0 0 0.403922 0 0 0 0 0 0 0 0 0.22 0"/><feBlend in2="BackgroundImageFix" result="effect1_dropShadow_501_771"/><feColorMatrix in="SourceAlpha" values="0 0 0 0 0 0 0 0 0 0 0 0 0 0 0 0 0 0 127 0" result="hardAlpha"/><feOffset dy="8"/><feGaussianBlur stdDeviation="9"/><feColorMatrix values="0 0 0 0 1 0 0 0 0 0.403922 0 0 0 0 0 0 0 0 0.32 0"/><feBlend in2="effect1_dropShadow_501_771" result="effect2_dropShadow_501_771"/><feBlend in="SourceGraphic" in2="effect2_dropShadow_501_771" result="shape"/></filter></defs></svg>